<?xml version="1.0" encoding="UTF-8" standalone="no"?>
<svg width="400px" height="110px" viewBox="0 0 400 110" version="1.1" xmlns="http://www.w3.org/2000/svg" xmlns:xlink="http://www.w3.org/1999/xlink" xmlns:sketch="http://www.bohemiancoding.com/sketch/ns">
    <!-- Generator: Sketch 3.5.1 (25234) - http://www.bohemiancoding.com/sketch -->
    <title>eTactica-logo</title>
    <desc>Created with Sketch.</desc>
    <defs>
        <path id="path-1" d="M0,0.00754901961 L399.51027,0.00754901961 L399.51027,110 L0,110 L0,0.00754901961 Z"></path>
    </defs>
    <g id="Assets" stroke="none" stroke-width="1" fill="none" fill-rule="evenodd" sketch:type="MSPage">
        <g id="Desktop-HD" sketch:type="MSArtboardGroup" transform="translate(-1017.000000, -893.000000)">
            <g id="eTactica-logo" sketch:type="MSLayerGroup" transform="translate(1017.000000, 893.000000)">
                <path d="M46.5044324,32.9665686 L26.1384865,32.9665686 L26.1384865,23.2876471 L78.1471351,23.2876471 L78.1471351,32.9665686 L57.7801081,32.9665686 L57.7801081,85.1966176 L46.5044324,85.1966176 L46.5044324,32.9665686 Z" id="Fill-1" fill="#3C3B3C" sketch:type="MSShapeGroup"></path>
                <g id="Group-16">
                    <path d="M80.9462162,77.6103382 C86.89,77.6103382 91.0856757,71.33225 91.0856757,65.9255343 L91.0856757,64.8799951 L89.162973,64.8799951 C83.3937838,64.8799951 74.2154054,65.6656324 74.2154054,71.85475 C74.2154054,74.8193578 76.4008108,77.6103382 80.9462162,77.6103382 M89.5121622,57.2937696 L90.9110811,57.2937696 L90.9110811,56.9454363 C90.9110811,50.5799951 88.3759459,48.2257794 82.6943243,48.2257794 C80.6840541,48.2257794 76.7510811,48.7493578 76.7510811,51.189848 L76.7510811,53.5446029 L66.437027,53.5446029 L66.437027,48.8361716 C66.437027,40.5527402 78.1489189,39.6808284 82.7818919,39.6808284 C97.6418919,39.6808284 102.011622,47.4417598 102.011622,57.3816618 L102.011622,73.9485245 C102.011622,75.1693088 102.711622,75.8665147 103.934865,75.8665147 L107.431622,75.8665147 L107.431622,85.1965637 L97.4667568,85.1965637 C93.3581081,85.1965637 91.7856757,82.9286225 91.7856757,80.3145049 C91.7856757,79.1805343 91.8721622,78.3954363 91.8721622,78.3954363 L91.6975676,78.3954363 C91.6975676,78.3954363 88.2883784,86.2431814 78.237027,86.2431814 C70.2824324,86.2431814 63.0272973,81.272152 63.0272973,72.3783284 C63.0272973,58.4277402 82.257027,57.2937696 89.5121622,57.2937696" id="Fill-2" fill="#3C3B3C" sketch:type="MSShapeGroup"></path>
                    <path d="M131.908486,39.6806667 C137.677676,39.6806667 148.079838,42.0348824 148.079838,49.7079216 L148.079838,54.9399314 L138.289568,54.9399314 L138.289568,52.498902 C138.289568,50.0578725 134.619297,49.0107157 131.908486,49.0107157 C124.216595,49.0107157 118.709568,54.8525784 118.709568,62.8744902 C118.709568,71.9435588 125.440378,76.5635588 132.608486,76.5635588 C140.213351,76.5635588 145.806865,70.5475294 145.806865,70.5475294 L150.439838,78.2205686 C150.439838,78.2205686 143.796595,86.2430196 131.646324,86.2430196 C116.962541,86.2430196 107.521459,75.8663529 107.521459,62.9623824 C107.521459,50.4062059 116.61173,39.6806667 131.908486,39.6806667" id="Fill-4" fill="#3C3B3C" sketch:type="MSShapeGroup"></path>
                    <mask id="mask-2" sketch:name="Clip 7" fill="white">
                        <use xlink:href="#path-1"></use>
                    </mask>
                    <g id="Clip-7"></g>
                    <path d="M193.535676,23.2876471 L183.921081,23.2876471 L183.921081,33.4896078 L193.535676,33.4896078 L193.535676,23.2876471 Z" id="Fill-6" fill="#3C3B3C" sketch:type="MSShapeGroup" mask="url(#mask-2)"></path>
                    <path d="M166.35,40.7272304 L166.35,28.6072794 L155.512162,28.6072794 L155.512162,40.7272304 L149.480811,40.7272304 L149.480811,49.5342402 L155.248919,49.5342402 L155.248919,68.8904657 C155.248919,83.8013971 167.573784,85.6331127 173.78027,85.6331127 C175.79,85.6331127 177.19,85.3699755 177.19,85.3699755 L177.19,75.6926716 C177.19,75.6926716 176.401892,75.866299 175.178108,75.866299 C172.119189,75.866299 166.35,74.8196814 166.35,67.4960539 L166.35,49.5342402 L181.474324,49.4867892 C182.697568,49.4867892 183.397027,50.0977206 183.397027,51.4058578 L183.397027,79.2676716 C183.397027,83.4525245 185.145135,85.1968873 189.253243,85.1968873 L199.83,85.1968873 L199.83,75.866299 L196.333243,75.866299 C195.11,75.866299 194.411081,75.1690931 194.411081,73.9483088 L194.411081,46.6564461 C194.411081,42.5578676 192.662973,40.7272304 188.554324,40.7272304" id="Fill-8" fill="#3C3B3C" sketch:type="MSShapeGroup" mask="url(#mask-2)"></path>
                    <path d="M224.305027,39.6806667 C230.074757,39.6806667 240.476919,42.0348824 240.476919,49.7079216 L240.476919,54.9399314 L230.686649,54.9399314 L230.686649,52.498902 C230.686649,50.0578725 227.015838,49.0107157 224.305027,49.0107157 C216.613135,49.0107157 211.107189,54.8525784 211.107189,62.8744902 C211.107189,71.9435588 217.836919,76.5635588 225.005568,76.5635588 C232.610432,76.5635588 238.203946,70.5475294 238.203946,70.5475294 L242.836919,78.2205686 C242.836919,78.2205686 236.194216,86.2430196 224.043946,86.2430196 C209.359081,86.2430196 199.918541,75.8663529 199.918541,62.9623824 C199.918541,50.4062059 209.008811,39.6806667 224.305027,39.6806667" id="Fill-9" fill="#3C3B3C" sketch:type="MSShapeGroup" mask="url(#mask-2)"></path>
                    <path d="M260.584054,77.6103382 C266.527838,77.6103382 270.723514,71.33225 270.723514,65.9255343 L270.723514,64.8799951 L268.800811,64.8799951 C263.031622,64.8799951 253.853243,65.6656324 253.853243,71.85475 C253.853243,74.8193578 256.038649,77.6103382 260.584054,77.6103382 M269.149459,57.2937696 L270.549459,57.2937696 L270.549459,56.9454363 C270.549459,50.5799951 268.013243,48.2257794 262.332162,48.2257794 C260.321351,48.2257794 256.386757,48.7493578 256.386757,51.189848 L256.386757,53.5446029 L246.073784,53.5446029 L246.073784,48.8361716 C246.073784,40.5527402 257.786757,39.6808284 262.41973,39.6808284 C277.279189,39.6808284 281.648378,47.4417598 281.648378,57.3816618 L281.648378,73.9485245 C281.648378,75.1693088 282.349459,75.8665147 283.572703,75.8665147 L287.068919,75.8665147 L287.068919,85.1965637 L277.104595,85.1965637 C272.996486,85.1965637 271.422432,82.9286225 271.422432,80.3145049 C271.422432,79.1805343 271.509459,78.3954363 271.509459,78.3954363 L271.335405,78.3954363 C271.335405,78.3954363 267.925676,86.2431814 257.873784,86.2431814 C249.919189,86.2431814 242.664595,81.272152 242.664595,72.3783284 C242.664595,58.4277402 261.894865,57.2937696 269.149459,57.2937696" id="Fill-10" fill="#3C3B3C" sketch:type="MSShapeGroup" mask="url(#mask-2)"></path>
                    <path d="M35.9646486,59.28175 C35.5187027,48.4208676 29.0035676,43.5237108 21.5965405,43.5237108 C13.3857297,43.5237108 5.80032432,48.8662598 4.19383784,59.28175 L35.9646486,59.28175 Z M21.6857297,40.0522402 C33.823027,40.0522402 39.8916757,49.5774853 39.8916757,60.3499363 C39.8916757,61.329152 39.7132973,62.7532206 39.7132973,62.7532206 L3.92627027,62.7532206 C3.92627027,75.6625833 12.6727568,83.0514559 23.0246486,83.0514559 C31.5916757,83.0514559 36.8570811,77.4430735 36.8570811,77.4430735 L38.9100541,80.559201 C38.9100541,80.559201 32.663027,86.7014069 23.0246486,86.7014069 C10.4414054,86.7014069 -0.000216216216,77.6210147 -0.000216216216,63.4655245 C-0.000216216216,48.4208676 10.263027,40.0522402 21.6857297,40.0522402 L21.6857297,40.0522402 Z" id="Fill-11" fill="#3C3B3C" sketch:type="MSShapeGroup" mask="url(#mask-2)"></path>
                    <path d="M350.795892,28.4350539 C353.949405,28.4350539 357.263459,29.3581912 360.072108,30.3535833 L369.734811,3.20407353 L369.734811,3.19436765 C363.900757,1.13564216 357.625081,0.00760294118 351.087784,0.00760294118 C333.37427,0.00760294118 317.598595,8.25706373 307.385622,21.1135833 L329.540757,38.9605441 C335.525622,31.5296127 342.259676,28.4350539 350.795892,28.4350539" id="Fill-12" fill="#D13123" sketch:type="MSShapeGroup" mask="url(#mask-2)"></path>
                    <path d="M329.542973,38.962701 L312.085135,24.8983382 C294.225135,48.6054951 302.219189,79.0717206 316.398108,92.1929951 L332.697027,76.5395637 C320.189459,64.07775 322.53,48.2647108 329.542973,38.962701" id="Fill-13" fill="#00A533" sketch:type="MSShapeGroup" mask="url(#mask-2)"></path>
                    <path d="M332.665892,76.5188578 L314.154,94.3361618 C337.090216,116.757828 372.518865,116.147975 393.860486,85.7378284 L372.78373,70.6090539 C363.816162,84.3984167 346.310757,88.0176324 332.665892,76.5188578" id="Fill-14" fill="#408CAD" sketch:type="MSShapeGroup" mask="url(#mask-2)"></path>
                    <path d="M399.51,55.8427402 L350.920811,55.8427402 L367.952162,8.16475 C386.475405,14.7226912 399.51,35.1142108 399.51,55.8427402" id="Fill-15" fill="#E8C100" sketch:type="MSShapeGroup" mask="url(#mask-2)"></path>
                </g>
            </g>
        </g>
    </g>
</svg>